<?xml version="1.0" ?><!DOCTYPE svg  PUBLIC '-//W3C//DTD SVG 1.1//EN'  'http://www.w3.org/Graphics/SVG/1.1/DTD/svg11.dtd'><svg height="8.4666mm" style="shape-rendering:geometricPrecision; text-rendering:geometricPrecision; image-rendering:optimizeQuality; fill-rule:evenodd; clip-rule:evenodd" version="1.1" viewBox="0 0 846.66 846.66" width="8.4666mm" xml:space="preserve" xmlns="http://www.w3.org/2000/svg" xmlns:xlink="http://www.w3.org/1999/xlink"><defs><style type="text/css">
   <![CDATA[
    .fil0 {fill:black;fill-rule:nonzero}
   ]]>
  </style></defs><g id="Layer_x0020_1"><path class="fil0" d="M338.01 764.84l28.1 4.7 46.09 -228.89 -74.78 43.72 0.59 180.47zm-85.7 -731.04c23.02,0 45.06,8.85 61.75,24.65 38.66,2.1 71.79,28.94 81.79,66.34 63.74,19.66 85.14,101.22 37.04,149.33 -33,33 -86.21,34.99 -121.7,4.83 -34.4,37.18 -93.34,38.92 -129.56,2.7 -31.16,-31.17 -35,-81.01 -8.95,-116.49 -30.73,-59 11.49,-131.36 79.63,-131.36zm0 40.45c-41.27,0 -62.85,46.56 -40.24,78.12 6.75,9.41 9.34,20.3 -0.54,29.44 -20.43,18.93 -20.96,51.57 -1.3,71.23 24,24 63.75,16.89 78.79,-12.13 8.33,-16.12 27.21,-23.39 37.6,-5.45 16.26,27.92 54.94,32.78 77.67,10.06 29.05,-29.06 11.67,-78.74 -28.44,-83.98 -9.16,-1.19 -16.6,-8.59 -17.46,-18.17 -2.46,-26.24 -25.27,-45.81 -51.53,-44.65 -6.21,0.45 -12.55,-1.97 -16.88,-7.09 -9.46,-11.13 -23.08,-17.38 -37.67,-17.38zm328.58 596.73c8.66,-1.3 17.49,3.2 21.31,11.57 11.29,24.62 45.73,34.56 70.64,34.56 23.95,0 54.18,-8.55 67.93,-29.75 3.92,-6 9.2,-9.8 16.62,-10.15 21.28,-1.07 37.86,-18.73 37.86,-39.99 0,-19.26 -13.45,-35.73 -32.41,-39.34 -11.74,-1.61 -19.96,-11.67 -17.88,-23.58 2.06,-11.67 -1.06,-23.62 -8.69,-32.75 -12.03,-14.41 -32.54,-18.5 -49.18,-9.85 -10.24,5.12 -22.42,1.8 -27.68,-8.71 -12.1,-24.22 -44.76,-29.78 -64.15,-10.39 -12.57,12.56 -15.33,32.13 -6.77,47.65 8.15,12.67 -0.13,29.92 -15.5,31.06 -20.97,1.59 -36.86,18.9 -36.86,39.89 0,24.17 20.73,42.4 44.76,39.78zm-8.29 40.59c-42.82,-1.85 -76.92,-37.67 -76.92,-80.37 0,-32.29 19.53,-61.45 49.09,-74.04 -5.49,-26.48 2.7,-53.98 21.89,-73.16 33.62,-33.63 88.55,-30.62 118.6,5.43 30.3,-7.74 61.8,2.03 81.98,26.21 10.93,13.07 17.73,29.57 18.68,47.29 29.93,12.39 49.78,41.77 49.78,74.29 0,38.87 -27.96,72.23 -66.13,79.11 -22.75,28.14 -61.43,41.23 -96.73,41.23 -37.12,0 -78.3,-14.56 -100.24,-45.99zm-507.8 -371.04c2.54,-10.87 13.4,-17.62 24.26,-15.09l282.71 56.98 65.67 -49.34c91.84,-69.01 191.42,80.93 92.28,138.88l-70.94 41.46 -56.87 282.57c-1.83,10.99 -12.24,18.42 -23.23,16.59l-64.07 -10.77c-9.55,-1.58 -16.83,-9.87 -16.83,-19.87l-0.58 -174.06 -102.08 59.67 -23.79 56.01c-28,65.89 -132.33,27.28 -100.49,-47.64 -81.17,0.34 -76.79,-110.73 -4.99,-111.03l63.43 -0.27 92.85 -69.76 -160.38 -67.95c-9.18,-3.87 -14,-13.75 -11.8,-23.14l14.85 -63.24zm34.87 28.19l-6.54 27.72 166.24 70.43 69.27 -52.04 -228.97 -46.11zm69.32 267.26l340.35 -198.94c50.39,-29.46 -1.1,-106.77 -47.73,-71.73l-313.31 235.41c-3.37,2.6 -7.59,4.15 -12.18,4.16l-70.11 0.3c-20.09,0.09 -19.97,30.55 0.14,30.46l33.99 -0.14c14.74,-0.93 25.72,14.15 19.81,28.04 -4.58,10.77 -9.1,22.8 -14.09,33.23 -6.36,18.02 20.65,29.07 28.33,10.99l25.94 -61.07c1.54,-4.35 4.57,-8.2 8.86,-10.71z"/></g></svg>